<svg width="603" height="284" viewBox="0 0 603 284" fill="none" xmlns="http://www.w3.org/2000/svg">
<mask id="path-1-outside-1" maskUnits="userSpaceOnUse" x="0" y="0" width="603" height="284" fill="black">
<rect fill="white" width="603" height="284"/>
<path d="M3.3968 81.88L3.3968 25L18.3768 25L18.976 30.52C21.6924 28.44 24.6484 26.8 27.8441 25.6C31.1198 24.4 34.6351 23.8 38.3901 23.8C42.3847 23.8 45.4606 24.4 47.6177 25.6C49.8547 26.8 51.5724 28.52 52.7708 30.76C55.4073 28.68 58.4033 27 61.7588 25.72C65.1943 24.44 69.2289 23.8 73.8627 23.8C80.4139 23.8 85.2475 25.52 88.3633 28.96C91.4791 32.32 93.0371 37.48 93.0371 44.44L93.0371 81.88H77.0984V46.24C77.0984 42.48 76.2994 39.8 74.7016 38.2C73.1037 36.52 70.5471 35.68 67.0318 35.68C62.2382 35.68 58.2435 37.4 55.0478 40.84C55.4473 42.2 55.647 43.84 55.647 45.76L55.647 81.88L40.5472 81.88L40.5472 46.24C40.5472 42.72 39.948 40.08 38.7496 38.32C37.5512 36.56 35.2343 35.68 31.7989 35.68C29.4021 35.68 27.1251 36.32 24.968 37.6C22.8908 38.8 21.0133 40.2 19.3355 41.8L19.3355 81.88H3.3968Z"/>
<path d="M132.797 83.08C122.171 83.08 114.381 80.52 109.428 75.4C104.475 70.2 101.998 62.88 101.998 53.44C101.998 44 104.475 36.72 109.428 31.6C114.461 26.4 122.251 23.8 132.797 23.8C143.423 23.8 151.212 26.4 156.166 31.6C161.199 36.72 163.715 44 163.715 53.44C163.715 62.88 161.239 70.2 156.285 75.4C151.332 80.52 143.502 83.08 132.797 83.08ZM132.797 69.28C137.99 69.28 141.705 68.12 143.942 65.8C146.179 63.4 147.297 59.28 147.297 53.44C147.297 47.6 146.179 43.52 143.942 41.2C141.705 38.8 137.99 37.6 132.797 37.6C127.684 37.6 124.008 38.8 121.771 41.2C119.534 43.52 118.416 47.6 118.416 53.44C118.416 59.28 119.534 63.4 121.771 65.8C124.008 68.12 127.684 69.28 132.797 69.28Z"/>
<path d="M208.4 83.08C204.405 83.08 200.93 82.56 197.974 81.52C195.018 80.4 192.301 78.76 189.825 76.6L188.986 81.88H174.964V1L191.143 1V28.12C193.46 26.68 196.056 25.6 198.932 24.88C201.809 24.16 204.805 23.8 207.92 23.8C216.07 23.8 222.501 26.12 227.215 30.76C232.008 35.32 234.405 42.72 234.405 52.96C234.405 63.2 232.048 70.8 227.335 75.76C222.701 80.64 216.389 83.08 208.4 83.08ZM203.846 71.2C209.039 71.2 212.674 69.68 214.751 66.64C216.908 63.6 217.987 59.04 217.987 52.96C217.987 46.64 216.829 42.2 214.512 39.64C212.275 37 208.679 35.68 203.726 35.68C201.249 35.68 198.893 36.04 196.656 36.76C194.498 37.48 192.661 38.52 191.143 39.88V66.04C192.741 67.72 194.618 69 196.775 69.88C199.012 70.76 201.369 71.2 203.846 71.2Z"/>
<path d="M247.265 14.56V1.84L264.882 1.84V14.56L247.265 14.56ZM248.584 81.88V37L240.075 37L241.513 25L264.762 25V81.88H248.584Z"/>
<path d="M294.356 83.08C288.843 83.08 284.809 81.8 282.252 79.24C279.775 76.68 278.537 72.6 278.537 67V1L294.715 1V65.68C294.715 67.68 295.115 69.08 295.914 69.88C296.713 70.6 297.871 70.96 299.389 70.96C301.466 70.96 303.344 70.68 305.022 70.12V81.28C301.986 82.48 298.431 83.08 294.356 83.08Z"/>
<path d="M343.832 83.08C334.005 83.08 326.216 80.64 320.463 75.76C314.711 70.8 311.835 63.32 311.835 53.32C311.835 44.28 314.232 37.12 319.025 31.84C323.899 26.48 331.129 23.8 340.716 23.8C349.504 23.8 356.216 26.12 360.849 30.76C365.563 35.32 367.92 41.32 367.92 48.76V59.08L326.815 59.08C327.694 63.64 329.771 66.76 333.046 68.44C336.402 70.12 341.116 70.96 347.188 70.96C350.224 70.96 353.299 70.68 356.415 70.12C359.611 69.56 362.327 68.84 364.564 67.96V79.48C361.928 80.68 358.852 81.56 355.337 82.12C351.821 82.76 347.986 83.08 343.832 83.08ZM326.815 49.12L353.779 49.12V46C353.779 42.72 352.82 40.16 350.903 38.32C348.985 36.4 345.75 35.44 341.196 35.44C335.843 35.44 332.088 36.52 329.931 38.68C327.853 40.84 326.815 44.32 326.815 49.12Z"/>
<path d="M423.372 83.08C419.777 83.08 416.421 82.44 413.306 81.16C410.27 79.8 407.793 77.84 405.875 75.28C404.038 72.64 403.119 69.36 403.119 65.44C403.119 59.84 405.077 55.36 408.991 52C412.986 48.64 418.858 46.96 426.608 46.96H443.385V45.4C443.385 41.88 442.387 39.4 440.389 37.96C438.472 36.52 434.557 35.8 428.645 35.8C422.174 35.8 415.942 36.8 409.95 38.8V27.4C412.586 26.36 415.782 25.52 419.537 24.88C423.372 24.16 427.527 23.8 432.001 23.8C440.549 23.8 447.14 25.56 451.774 29.08C456.488 32.52 458.845 38.08 458.845 45.76V81.88H444.823L443.985 76.72C441.748 78.72 438.991 80.28 435.716 81.4C432.44 82.52 428.325 83.08 423.372 83.08ZM427.806 72.4C431.401 72.4 434.517 71.8 437.154 70.6C439.79 69.4 441.867 67.88 443.385 66.04V57.04H426.967C420.656 57.04 417.5 59.64 417.5 64.84C417.5 69.88 420.935 72.4 427.806 72.4Z"/>
<path d="M471.873 107.8V25L485.894 25L486.733 30.28C489.209 28.2 491.926 26.6 494.882 25.48C497.838 24.36 501.313 23.8 505.308 23.8C513.617 23.8 520.008 26.08 524.482 30.64C529.036 35.12 531.313 42.48 531.313 52.72C531.313 62.96 528.876 70.6 524.003 75.64C519.209 80.6 512.658 83.08 504.349 83.08C497.958 83.08 492.525 81.64 488.051 78.76V107.8L471.873 107.8ZM500.275 71.2C505.068 71.2 508.703 69.72 511.18 66.76C513.657 63.8 514.895 59.16 514.895 52.84C514.895 46.76 513.777 42.4 511.54 39.76C509.303 37.04 505.707 35.68 500.754 35.68C495.801 35.68 491.566 37.4 488.051 40.84V66.88C489.729 68.16 491.486 69.2 493.324 70C495.241 70.8 497.558 71.2 500.275 71.2Z"/>
<path d="M542.559 107.8V25H556.581L557.42 30.28C559.896 28.2 562.613 26.6 565.569 25.48C568.525 24.36 572 23.8 575.995 23.8C584.304 23.8 590.695 26.08 595.169 30.64C599.723 35.12 602 42.48 602 52.72C602 62.96 599.563 70.6 594.69 75.64C589.896 80.6 583.345 83.08 575.036 83.08C568.645 83.08 563.212 81.64 558.738 78.76V107.8H542.559ZM570.961 71.2C575.755 71.2 579.39 69.72 581.867 66.76C584.344 63.8 585.582 59.16 585.582 52.84C585.582 46.76 584.463 42.4 582.226 39.76C579.989 37.04 576.394 35.68 571.441 35.68C566.487 35.68 562.253 37.4 558.738 40.84V66.88C560.416 68.16 562.173 69.2 564.011 70C565.928 70.8 568.245 71.2 570.961 71.2Z"/>
<path d="M27.1251 263.08C22.0918 263.08 17.5779 262.2 13.5832 260.44C9.66842 258.6 6.59253 255.64 4.35552 251.56C2.11851 247.4 1 241.92 1 235.12C1 228.32 2.23835 222.6 4.71504 217.96C7.19173 213.32 10.5073 209.8 14.6618 207.4C18.8162 205 23.3701 203.8 28.3235 203.8C34.5552 203.8 39.8681 205.24 44.2622 208.12L44.2622 181H60.4406L60.4406 261.88H46.5392L45.5805 256.6C43.1038 258.76 40.3874 260.4 37.4313 261.52C34.5552 262.56 31.1198 263.08 27.1251 263.08ZM31.5592 251.2C36.5925 251.2 40.8268 249.48 44.2622 246.04L44.2622 220.12C40.9067 217.16 36.9919 215.68 32.5179 215.68C22.4513 215.68 17.4181 222.16 17.4181 235.12C17.4181 241.2 18.6564 245.4 21.1331 247.72C23.6098 250.04 27.0852 251.2 31.5592 251.2Z"/>
<path d="M102.514 263.08C92.6869 263.08 84.8973 260.64 79.145 255.76C73.3927 250.8 70.5165 243.32 70.5165 233.32C70.5165 224.28 72.9133 217.12 77.7069 211.84C82.5804 206.48 89.8107 203.8 99.3979 203.8C108.186 203.8 114.897 206.12 119.531 210.76C124.245 215.32 126.602 221.32 126.602 228.76V239.08L85.4965 239.08C86.3753 243.64 88.4526 246.76 91.7282 248.44C95.0837 250.12 99.7974 250.96 105.869 250.96C108.905 250.96 111.981 250.68 115.097 250.12C118.293 249.56 121.009 248.84 123.246 247.96V259.48C120.61 260.68 117.534 261.56 114.018 262.12C110.503 262.76 106.668 263.08 102.514 263.08ZM85.4965 229.12L112.46 229.12V226C112.46 222.72 111.502 220.16 109.584 218.32C107.667 216.4 104.431 215.44 99.8773 215.44C94.5244 215.44 90.7695 216.52 88.6124 218.68C86.5351 220.84 85.4965 224.32 85.4965 229.12Z"/>
<path d="M157.294 263.08C153.059 263.08 149.025 262.76 145.19 262.12C141.355 261.56 138.279 260.84 135.962 259.96V246.52C138.758 247.64 141.914 248.52 145.43 249.16C148.945 249.72 152.181 250 155.137 250C159.131 250 161.928 249.76 163.525 249.28C165.203 248.8 166.042 247.72 166.042 246.04C166.042 244.12 164.764 242.72 162.207 241.84C159.73 240.96 156.015 239.72 151.062 238.12C145.869 236.36 141.874 234.24 139.078 231.76C136.282 229.28 134.884 225.6 134.884 220.72C134.884 215.28 136.841 211.12 140.756 208.24C144.75 205.28 151.142 203.8 159.93 203.8C163.446 203.8 166.761 204.08 169.877 204.64C172.993 205.12 175.629 205.72 177.786 206.44V219.76C175.629 218.72 173.153 217.96 170.356 217.48C167.56 216.92 164.963 216.64 162.567 216.64C159.131 216.64 156.375 216.88 154.298 217.36C152.3 217.84 151.302 218.88 151.302 220.48C151.302 222.24 152.38 223.48 154.537 224.2C156.774 224.92 160.21 226 164.844 227.44C169.398 228.8 172.953 230.28 175.509 231.88C178.066 233.48 179.864 235.4 180.902 237.64C181.941 239.8 182.46 242.52 182.46 245.8C182.46 257.32 174.071 263.08 157.294 263.08Z"/>
<path d="M197.644 194.56V181.84H215.261V194.56H197.644ZM198.962 261.88V217H190.454L191.892 205H215.141V261.88H198.962Z"/>
<path d="M252.884 283C248.65 283 244.295 282.72 239.821 282.16C235.427 281.6 231.712 280.8 228.676 279.76V267.64C231.872 268.68 235.627 269.48 239.941 270.04C244.255 270.68 248.29 271 252.045 271C257.558 271 261.552 270.68 264.029 270.04C266.506 269.48 267.744 268.44 267.744 266.92C267.744 265.64 267.185 264.76 266.066 264.28C265.028 263.8 262.791 263.56 259.355 263.56H243.896C233.749 263.56 228.676 259.8 228.676 252.28C228.676 249.96 229.315 247.84 230.594 245.92C231.872 244 233.909 242.48 236.705 241.36C230.234 238.08 226.998 232.56 226.998 224.8C226.998 217.44 229.275 212.12 233.829 208.84C238.383 205.48 245.134 203.8 254.082 203.8C255.92 203.8 257.917 203.96 260.074 204.28C262.311 204.52 263.989 204.76 265.108 205L286.439 205L286.079 215.2H277.092C279.568 217.52 280.807 220.76 280.807 224.92C280.807 230.76 278.969 235.44 275.294 238.96C271.619 242.4 266.186 244.12 258.996 244.12C257.717 244.12 256.479 244.08 255.281 244C254.162 243.84 253.004 243.68 251.805 243.52C249.408 243.84 247.371 244.4 245.693 245.2C244.096 246 243.297 247.08 243.297 248.44C243.297 250.28 244.934 251.2 248.21 251.2H264.269C270.021 251.2 274.455 252.52 277.571 255.16C280.687 257.72 282.245 261.48 282.245 266.44C282.245 272.04 279.728 276.2 274.695 278.92C269.661 281.64 262.391 283 252.884 283ZM254.202 235C258.996 235 262.311 234.2 264.149 232.6C266.066 230.92 267.025 228.12 267.025 224.2C267.025 220.28 266.066 217.44 264.149 215.68C262.311 213.92 258.996 213.04 254.202 213.04C249.648 213.04 246.373 213.92 244.375 215.68C242.378 217.36 241.379 220.2 241.379 224.2C241.379 227.88 242.298 230.6 244.136 232.36C246.053 234.12 249.409 235 254.202 235Z"/>
<path d="M293.166 261.88V205H308.146L308.745 210.4C311.062 208.64 313.978 207.12 317.493 205.84C321.089 204.48 324.844 203.8 328.758 203.8C336.268 203.8 341.741 205.56 345.177 209.08C348.612 212.6 350.33 218.04 350.33 225.4V261.88H334.151V226.24C334.151 222.4 333.352 219.68 331.754 218.08C330.236 216.48 327.36 215.68 323.126 215.68C320.649 215.68 318.133 216.24 315.576 217.36C313.099 218.48 311.022 219.88 309.344 221.56V261.88H293.166Z"/>
</mask>
<path d="M3.3968 81.88L3.3968 25L18.3768 25L18.976 30.52C21.6924 28.44 24.6484 26.8 27.8441 25.6C31.1198 24.4 34.6351 23.8 38.3901 23.8C42.3847 23.8 45.4606 24.4 47.6177 25.6C49.8547 26.8 51.5724 28.52 52.7708 30.76C55.4073 28.68 58.4033 27 61.7588 25.72C65.1943 24.44 69.2289 23.8 73.8627 23.8C80.4139 23.8 85.2475 25.52 88.3633 28.96C91.4791 32.32 93.0371 37.48 93.0371 44.44L93.0371 81.88H77.0984V46.24C77.0984 42.48 76.2994 39.8 74.7016 38.2C73.1037 36.52 70.5471 35.68 67.0318 35.68C62.2382 35.68 58.2435 37.4 55.0478 40.84C55.4473 42.2 55.647 43.84 55.647 45.76L55.647 81.88L40.5472 81.88L40.5472 46.24C40.5472 42.72 39.948 40.08 38.7496 38.32C37.5512 36.56 35.2343 35.68 31.7989 35.68C29.4021 35.68 27.1251 36.32 24.968 37.6C22.8908 38.8 21.0133 40.2 19.3355 41.8L19.3355 81.88H3.3968Z" stroke="#E6E6E6" mask="url(#path-1-outside-1)"/>
<path d="M132.797 83.08C122.171 83.08 114.381 80.52 109.428 75.4C104.475 70.2 101.998 62.88 101.998 53.44C101.998 44 104.475 36.72 109.428 31.6C114.461 26.4 122.251 23.8 132.797 23.8C143.423 23.8 151.212 26.4 156.166 31.6C161.199 36.72 163.715 44 163.715 53.44C163.715 62.88 161.239 70.2 156.285 75.4C151.332 80.52 143.502 83.08 132.797 83.08ZM132.797 69.28C137.99 69.28 141.705 68.12 143.942 65.8C146.179 63.4 147.297 59.28 147.297 53.44C147.297 47.6 146.179 43.52 143.942 41.2C141.705 38.8 137.99 37.6 132.797 37.6C127.684 37.6 124.008 38.8 121.771 41.2C119.534 43.52 118.416 47.6 118.416 53.44C118.416 59.28 119.534 63.4 121.771 65.8C124.008 68.12 127.684 69.28 132.797 69.28Z" stroke="#E6E6E6" mask="url(#path-1-outside-1)"/>
<path d="M208.4 83.08C204.405 83.08 200.93 82.56 197.974 81.52C195.018 80.4 192.301 78.76 189.825 76.6L188.986 81.88H174.964V1L191.143 1V28.12C193.46 26.68 196.056 25.6 198.932 24.88C201.809 24.16 204.805 23.8 207.92 23.8C216.07 23.8 222.501 26.12 227.215 30.76C232.008 35.32 234.405 42.72 234.405 52.96C234.405 63.2 232.048 70.8 227.335 75.76C222.701 80.64 216.389 83.08 208.4 83.08ZM203.846 71.2C209.039 71.2 212.674 69.68 214.751 66.64C216.908 63.6 217.987 59.04 217.987 52.96C217.987 46.64 216.829 42.2 214.512 39.64C212.275 37 208.679 35.68 203.726 35.68C201.249 35.68 198.893 36.04 196.656 36.76C194.498 37.48 192.661 38.52 191.143 39.88V66.04C192.741 67.72 194.618 69 196.775 69.88C199.012 70.76 201.369 71.2 203.846 71.2Z" stroke="#E6E6E6" mask="url(#path-1-outside-1)"/>
<path d="M247.265 14.56V1.84L264.882 1.84V14.56L247.265 14.56ZM248.584 81.88V37L240.075 37L241.513 25L264.762 25V81.88H248.584Z" stroke="#E6E6E6" mask="url(#path-1-outside-1)"/>
<path d="M294.356 83.08C288.843 83.08 284.809 81.8 282.252 79.24C279.775 76.68 278.537 72.6 278.537 67V1L294.715 1V65.68C294.715 67.68 295.115 69.08 295.914 69.88C296.713 70.6 297.871 70.96 299.389 70.96C301.466 70.96 303.344 70.68 305.022 70.12V81.28C301.986 82.48 298.431 83.08 294.356 83.08Z" stroke="#E6E6E6" mask="url(#path-1-outside-1)"/>
<path d="M343.832 83.08C334.005 83.08 326.216 80.64 320.463 75.76C314.711 70.8 311.835 63.32 311.835 53.32C311.835 44.28 314.232 37.12 319.025 31.84C323.899 26.48 331.129 23.8 340.716 23.8C349.504 23.8 356.216 26.12 360.849 30.76C365.563 35.32 367.92 41.32 367.92 48.76V59.08L326.815 59.08C327.694 63.64 329.771 66.76 333.046 68.44C336.402 70.12 341.116 70.96 347.188 70.96C350.224 70.96 353.299 70.68 356.415 70.12C359.611 69.56 362.327 68.84 364.564 67.96V79.48C361.928 80.68 358.852 81.56 355.337 82.12C351.821 82.76 347.986 83.08 343.832 83.08ZM326.815 49.12L353.779 49.12V46C353.779 42.72 352.82 40.16 350.903 38.32C348.985 36.4 345.75 35.44 341.196 35.44C335.843 35.44 332.088 36.52 329.931 38.68C327.853 40.84 326.815 44.32 326.815 49.12Z" stroke="#E6E6E6" mask="url(#path-1-outside-1)"/>
<path d="M423.372 83.08C419.777 83.08 416.421 82.44 413.306 81.16C410.27 79.8 407.793 77.84 405.875 75.28C404.038 72.64 403.119 69.36 403.119 65.44C403.119 59.84 405.077 55.36 408.991 52C412.986 48.64 418.858 46.96 426.608 46.96H443.385V45.4C443.385 41.88 442.387 39.4 440.389 37.96C438.472 36.52 434.557 35.8 428.645 35.8C422.174 35.8 415.942 36.8 409.95 38.8V27.4C412.586 26.36 415.782 25.52 419.537 24.88C423.372 24.16 427.527 23.8 432.001 23.8C440.549 23.8 447.14 25.56 451.774 29.08C456.488 32.52 458.845 38.08 458.845 45.76V81.88H444.823L443.985 76.72C441.748 78.72 438.991 80.28 435.716 81.4C432.44 82.52 428.325 83.08 423.372 83.08ZM427.806 72.4C431.401 72.4 434.517 71.8 437.154 70.6C439.79 69.4 441.867 67.88 443.385 66.04V57.04H426.967C420.656 57.04 417.5 59.64 417.5 64.84C417.5 69.88 420.935 72.4 427.806 72.4Z" stroke="#E6E6E6" mask="url(#path-1-outside-1)"/>
<path d="M471.873 107.8V25L485.894 25L486.733 30.28C489.209 28.2 491.926 26.6 494.882 25.48C497.838 24.36 501.313 23.8 505.308 23.8C513.617 23.8 520.008 26.08 524.482 30.64C529.036 35.12 531.313 42.48 531.313 52.72C531.313 62.96 528.876 70.6 524.003 75.64C519.209 80.6 512.658 83.08 504.349 83.08C497.958 83.08 492.525 81.64 488.051 78.76V107.8L471.873 107.8ZM500.275 71.2C505.068 71.2 508.703 69.72 511.18 66.76C513.657 63.8 514.895 59.16 514.895 52.84C514.895 46.76 513.777 42.4 511.54 39.76C509.303 37.04 505.707 35.68 500.754 35.68C495.801 35.68 491.566 37.4 488.051 40.84V66.88C489.729 68.16 491.486 69.2 493.324 70C495.241 70.8 497.558 71.2 500.275 71.2Z" stroke="#E6E6E6" mask="url(#path-1-outside-1)"/>
<path d="M542.559 107.8V25H556.581L557.42 30.28C559.896 28.2 562.613 26.6 565.569 25.48C568.525 24.36 572 23.8 575.995 23.8C584.304 23.8 590.695 26.08 595.169 30.64C599.723 35.12 602 42.48 602 52.72C602 62.96 599.563 70.6 594.69 75.64C589.896 80.6 583.345 83.08 575.036 83.08C568.645 83.08 563.212 81.64 558.738 78.76V107.8H542.559ZM570.961 71.2C575.755 71.2 579.39 69.72 581.867 66.76C584.344 63.8 585.582 59.16 585.582 52.84C585.582 46.76 584.463 42.4 582.226 39.76C579.989 37.04 576.394 35.68 571.441 35.68C566.487 35.68 562.253 37.4 558.738 40.84V66.88C560.416 68.16 562.173 69.2 564.011 70C565.928 70.8 568.245 71.2 570.961 71.2Z" stroke="#E6E6E6" mask="url(#path-1-outside-1)"/>
<path d="M27.1251 263.08C22.0918 263.08 17.5779 262.2 13.5832 260.44C9.66842 258.6 6.59253 255.64 4.35552 251.56C2.11851 247.4 1 241.92 1 235.12C1 228.32 2.23835 222.6 4.71504 217.96C7.19173 213.32 10.5073 209.8 14.6618 207.4C18.8162 205 23.3701 203.8 28.3235 203.8C34.5552 203.8 39.8681 205.24 44.2622 208.12L44.2622 181H60.4406L60.4406 261.88H46.5392L45.5805 256.6C43.1038 258.76 40.3874 260.4 37.4313 261.52C34.5552 262.56 31.1198 263.08 27.1251 263.08ZM31.5592 251.2C36.5925 251.2 40.8268 249.48 44.2622 246.04L44.2622 220.12C40.9067 217.16 36.9919 215.68 32.5179 215.68C22.4513 215.68 17.4181 222.16 17.4181 235.12C17.4181 241.2 18.6564 245.4 21.1331 247.72C23.6098 250.04 27.0852 251.2 31.5592 251.2Z" stroke="#E6E6E6" mask="url(#path-1-outside-1)"/>
<path d="M102.514 263.08C92.6869 263.08 84.8973 260.64 79.145 255.76C73.3927 250.8 70.5165 243.32 70.5165 233.32C70.5165 224.28 72.9133 217.12 77.7069 211.84C82.5804 206.48 89.8107 203.8 99.3979 203.8C108.186 203.8 114.897 206.12 119.531 210.76C124.245 215.32 126.602 221.32 126.602 228.76V239.08L85.4965 239.08C86.3753 243.64 88.4526 246.76 91.7282 248.44C95.0837 250.12 99.7974 250.96 105.869 250.96C108.905 250.96 111.981 250.68 115.097 250.12C118.293 249.56 121.009 248.84 123.246 247.96V259.48C120.61 260.68 117.534 261.56 114.018 262.12C110.503 262.76 106.668 263.08 102.514 263.08ZM85.4965 229.12L112.46 229.12V226C112.46 222.72 111.502 220.16 109.584 218.32C107.667 216.4 104.431 215.44 99.8773 215.44C94.5244 215.44 90.7695 216.52 88.6124 218.68C86.5351 220.84 85.4965 224.32 85.4965 229.12Z" stroke="#E6E6E6" mask="url(#path-1-outside-1)"/>
<path d="M157.294 263.08C153.059 263.08 149.025 262.76 145.19 262.12C141.355 261.56 138.279 260.84 135.962 259.96V246.52C138.758 247.64 141.914 248.52 145.43 249.16C148.945 249.72 152.181 250 155.137 250C159.131 250 161.928 249.76 163.525 249.28C165.203 248.8 166.042 247.72 166.042 246.04C166.042 244.12 164.764 242.72 162.207 241.84C159.73 240.96 156.015 239.72 151.062 238.12C145.869 236.36 141.874 234.24 139.078 231.76C136.282 229.28 134.884 225.6 134.884 220.72C134.884 215.28 136.841 211.12 140.756 208.24C144.75 205.28 151.142 203.8 159.93 203.8C163.446 203.8 166.761 204.08 169.877 204.64C172.993 205.12 175.629 205.72 177.786 206.44V219.76C175.629 218.72 173.153 217.96 170.356 217.48C167.56 216.92 164.963 216.64 162.567 216.64C159.131 216.64 156.375 216.88 154.298 217.36C152.3 217.84 151.302 218.88 151.302 220.48C151.302 222.24 152.38 223.48 154.537 224.2C156.774 224.92 160.21 226 164.844 227.44C169.398 228.8 172.953 230.28 175.509 231.88C178.066 233.48 179.864 235.4 180.902 237.64C181.941 239.8 182.46 242.52 182.46 245.8C182.46 257.32 174.071 263.08 157.294 263.08Z" stroke="#E6E6E6" mask="url(#path-1-outside-1)"/>
<path d="M197.644 194.56V181.84H215.261V194.56H197.644ZM198.962 261.88V217H190.454L191.892 205H215.141V261.88H198.962Z" stroke="#E6E6E6" mask="url(#path-1-outside-1)"/>
<path d="M252.884 283C248.65 283 244.295 282.72 239.821 282.16C235.427 281.6 231.712 280.8 228.676 279.76V267.64C231.872 268.68 235.627 269.48 239.941 270.04C244.255 270.68 248.29 271 252.045 271C257.558 271 261.552 270.68 264.029 270.04C266.506 269.48 267.744 268.44 267.744 266.92C267.744 265.64 267.185 264.76 266.066 264.28C265.028 263.8 262.791 263.56 259.355 263.56H243.896C233.749 263.56 228.676 259.8 228.676 252.28C228.676 249.96 229.315 247.84 230.594 245.92C231.872 244 233.909 242.48 236.705 241.36C230.234 238.08 226.998 232.56 226.998 224.8C226.998 217.44 229.275 212.12 233.829 208.84C238.383 205.48 245.134 203.8 254.082 203.8C255.92 203.8 257.917 203.96 260.074 204.28C262.311 204.52 263.989 204.76 265.108 205L286.439 205L286.079 215.2H277.092C279.568 217.52 280.807 220.76 280.807 224.92C280.807 230.76 278.969 235.44 275.294 238.96C271.619 242.4 266.186 244.12 258.996 244.12C257.717 244.12 256.479 244.08 255.281 244C254.162 243.84 253.004 243.68 251.805 243.52C249.408 243.84 247.371 244.4 245.693 245.2C244.096 246 243.297 247.08 243.297 248.44C243.297 250.28 244.934 251.2 248.21 251.2H264.269C270.021 251.2 274.455 252.52 277.571 255.16C280.687 257.72 282.245 261.48 282.245 266.44C282.245 272.04 279.728 276.2 274.695 278.92C269.661 281.64 262.391 283 252.884 283ZM254.202 235C258.996 235 262.311 234.2 264.149 232.6C266.066 230.92 267.025 228.12 267.025 224.2C267.025 220.28 266.066 217.44 264.149 215.68C262.311 213.92 258.996 213.04 254.202 213.04C249.648 213.04 246.373 213.92 244.375 215.68C242.378 217.36 241.379 220.2 241.379 224.2C241.379 227.88 242.298 230.6 244.136 232.36C246.053 234.12 249.409 235 254.202 235Z" stroke="#E6E6E6" mask="url(#path-1-outside-1)"/>
<path d="M293.166 261.88V205H308.146L308.745 210.4C311.062 208.64 313.978 207.12 317.493 205.84C321.089 204.48 324.844 203.8 328.758 203.8C336.268 203.8 341.741 205.56 345.177 209.08C348.612 212.6 350.33 218.04 350.33 225.4V261.88H334.151V226.24C334.151 222.4 333.352 219.68 331.754 218.08C330.236 216.48 327.36 215.68 323.126 215.68C320.649 215.68 318.133 216.24 315.576 217.36C313.099 218.48 311.022 219.88 309.344 221.56V261.88H293.166Z" stroke="#E6E6E6" mask="url(#path-1-outside-1)"/>
</svg>
