<svg width="720" height="285" viewBox="0 0 720 285" fill="none" xmlns="http://www.w3.org/2000/svg">
<mask id="path-1-outside-1" maskUnits="userSpaceOnUse" x="0" y="0" width="720" height="285" fill="black">
<rect fill="white" width="720" height="285"/>
<path d="M15.8041 80.8084L1 24.682H16.9885L25.5156 61.1523L34.8718 31.905V24.682H47.0704L57.7294 61.1523L66.0197 24.682H81.8897L67.204 80.8084H52.5184L41.741 48.0088L30.7267 80.8084H15.8041Z"/>
<path d="M116.936 81.9925C107.224 81.9925 99.5261 79.5848 93.8413 74.7695C88.1565 69.8752 85.3141 62.4943 85.3141 52.6268C85.3141 43.7066 87.6828 36.6414 92.4201 31.4314C97.2364 26.1424 104.382 23.4979 113.856 23.4979C122.542 23.4979 129.174 25.7872 133.753 30.3657C138.412 34.8653 140.741 40.7858 140.741 48.1272V58.3105H100.118C100.987 62.81 103.04 65.8887 106.277 67.5464C109.593 69.2042 114.251 70.0331 120.252 70.0331C123.252 70.0331 126.292 69.7568 129.371 69.2042C132.529 68.6516 135.214 67.9411 137.425 67.0728V78.4402C134.819 79.6243 131.779 80.4926 128.305 81.0452C124.831 81.6767 121.041 81.9925 116.936 81.9925ZM100.118 48.4824H126.766V45.4038C126.766 42.1672 125.818 39.6411 123.923 37.8255C122.028 35.931 118.831 34.9837 114.33 34.9837C109.04 34.9837 105.329 36.0494 103.197 38.1808C101.145 40.3121 100.118 43.746 100.118 48.4824Z"/>
<path d="M184.915 81.9925C180.968 81.9925 177.533 81.4794 174.612 80.4531C171.69 79.348 169.006 77.7297 166.558 75.5983L165.729 80.8084H151.873V1H167.861V27.7607C170.151 26.3397 172.717 25.2741 175.559 24.5636C178.402 23.8531 181.362 23.4979 184.442 23.4979C192.495 23.4979 198.851 25.7872 203.509 30.3657C208.247 34.8653 210.615 42.1672 210.615 52.2715C210.615 62.3759 208.286 69.8752 203.628 74.7695C199.048 79.5848 192.811 81.9925 184.915 81.9925ZM180.415 70.2699C185.547 70.2699 189.139 68.77 191.192 65.7703C193.324 62.7706 194.39 58.271 194.39 52.2715C194.39 46.0353 193.245 41.6541 190.955 39.128C188.745 36.523 185.192 35.2205 180.296 35.2205C177.849 35.2205 175.52 35.5757 173.309 36.2862C171.177 36.9966 169.361 38.0229 167.861 39.3649V65.1782C169.44 66.836 171.296 68.099 173.427 68.9674C175.638 69.8357 177.967 70.2699 180.415 70.2699Z"/>
<path d="M3.36866 284V202.297H17.2253L18.0544 207.507C20.502 205.455 23.1864 203.876 26.1078 202.771C29.0291 201.666 32.4637 201.113 36.4115 201.113C44.6228 201.113 50.9392 203.363 55.3607 207.862C59.8612 212.283 62.1114 219.545 62.1114 229.65C62.1114 239.754 59.7033 247.293 54.887 252.266C50.1497 257.16 43.6754 259.608 35.464 259.608C29.1476 259.608 23.7786 258.187 19.3571 255.345V284H3.36866ZM31.4373 247.885C36.1746 247.885 39.7671 246.425 42.2147 243.504C44.6623 240.583 45.8861 236.004 45.8861 229.768C45.8861 223.769 44.7807 219.467 42.57 216.861C40.3592 214.178 36.8062 212.836 31.911 212.836C27.0158 212.836 22.8312 214.533 19.3571 217.927V243.622C21.0152 244.885 22.7522 245.911 24.5682 246.701C26.4631 247.49 28.7528 247.885 31.4373 247.885Z"/>
<path d="M73.2256 258.423V202.297H88.0297L88.7403 208.099C91.2669 206.52 94.3857 205.099 98.0965 203.836C101.886 202.494 105.597 201.587 109.229 201.113V213.191C107.097 213.507 104.768 213.98 102.242 214.612C99.7151 215.243 97.307 215.954 95.0173 216.743C92.7276 217.532 90.7932 218.361 89.2141 219.23V258.423H73.2256Z"/>
<path d="M143.162 259.608C132.661 259.608 124.963 257.081 120.068 252.029C115.172 246.898 112.725 239.675 112.725 230.36C112.725 221.045 115.172 213.862 120.068 208.81C125.042 203.678 132.74 201.113 143.162 201.113C153.663 201.113 161.361 203.678 166.257 208.81C171.231 213.862 173.718 221.045 173.718 230.36C173.718 239.675 171.27 246.898 166.375 252.029C161.48 257.081 153.742 259.608 143.162 259.608ZM143.162 245.99C148.294 245.99 151.966 244.846 154.176 242.556C156.387 240.188 157.493 236.123 157.493 230.36C157.493 224.598 156.387 220.572 154.176 218.282C151.966 215.914 148.294 214.73 143.162 214.73C138.109 214.73 134.477 215.914 132.266 218.282C130.056 220.572 128.95 224.598 128.95 230.36C128.95 236.123 130.056 240.188 132.266 242.556C134.477 244.846 138.109 245.99 143.162 245.99Z"/>
<path d="M208.521 279.264C204.337 279.264 200.034 278.987 195.612 278.435C191.27 277.882 187.598 277.093 184.598 276.066V264.107C187.756 265.133 191.467 265.923 195.731 266.475C199.994 267.107 203.982 267.423 207.692 267.423C213.14 267.423 217.088 267.107 219.536 266.475C221.983 265.923 223.207 264.897 223.207 263.397C223.207 262.134 222.654 261.265 221.549 260.792C220.523 260.318 218.312 260.081 214.917 260.081H199.639C189.612 260.081 184.598 256.371 184.598 248.951C184.598 246.661 185.23 244.569 186.493 242.675C187.756 240.78 189.77 239.28 192.533 238.175C186.138 234.939 182.94 229.492 182.94 221.835C182.94 214.572 185.19 209.323 189.691 206.086C194.191 202.771 200.863 201.113 209.706 201.113C211.522 201.113 213.496 201.271 215.627 201.587C217.838 201.823 219.496 202.06 220.602 202.297H241.683L241.327 212.362H232.445C234.893 214.651 236.116 217.848 236.116 221.953C236.116 227.716 234.3 232.334 230.668 235.807C227.036 239.202 221.668 240.899 214.562 240.899C213.298 240.899 212.074 240.859 210.89 240.78C209.785 240.622 208.64 240.465 207.456 240.307C205.087 240.622 203.074 241.175 201.415 241.964C199.836 242.754 199.047 243.82 199.047 245.161C199.047 246.977 200.665 247.885 203.903 247.885H219.773C225.457 247.885 229.839 249.187 232.919 251.792C235.998 254.319 237.538 258.029 237.538 262.923C237.538 268.449 235.05 272.554 230.076 275.238C225.102 277.922 217.917 279.264 208.521 279.264ZM209.824 231.9C214.562 231.9 217.838 231.11 219.654 229.531C221.549 227.874 222.497 225.111 222.497 221.243C222.497 217.375 221.549 214.572 219.654 212.836C217.838 211.099 214.562 210.231 209.824 210.231C205.324 210.231 202.087 211.099 200.113 212.836C198.139 214.493 197.152 217.296 197.152 221.243C197.152 224.874 198.06 227.558 199.876 229.295C201.771 231.031 205.087 231.9 209.824 231.9Z"/>
<path d="M248.331 258.423V202.297H263.135L263.845 208.099C266.372 206.52 269.491 205.099 273.202 203.836C276.991 202.494 280.702 201.587 284.334 201.113V213.191C282.202 213.507 279.873 213.98 277.347 214.612C274.82 215.243 272.412 215.954 270.122 216.743C267.833 217.532 265.898 218.361 264.319 219.23V258.423H248.331Z"/>
<path d="M306.573 259.608C303.02 259.608 299.704 258.976 296.624 257.713C293.624 256.371 291.177 254.437 289.282 251.911C287.466 249.306 286.558 246.069 286.558 242.201C286.558 236.675 288.492 232.255 292.361 228.939C296.309 225.624 302.112 223.966 309.771 223.966H326.351V222.427C326.351 218.953 325.364 216.506 323.39 215.085C321.495 213.664 317.627 212.954 311.784 212.954C305.389 212.954 299.23 213.941 293.308 215.914V204.665C295.914 203.639 299.072 202.81 302.783 202.179C306.573 201.468 310.679 201.113 315.1 201.113C323.548 201.113 330.062 202.85 334.641 206.323C339.3 209.717 341.629 215.204 341.629 222.782V258.423H327.772L326.943 253.332C324.733 255.305 322.009 256.845 318.771 257.95C315.534 259.055 311.468 259.608 306.573 259.608ZM310.955 249.069C314.508 249.069 317.587 248.477 320.193 247.293C322.798 246.109 324.851 244.609 326.351 242.793V233.913H310.126C303.888 233.913 300.77 236.478 300.77 241.609C300.77 246.582 304.165 249.069 310.955 249.069Z"/>
<path d="M354.504 258.423V202.297H369.308L369.9 207.744C372.585 205.691 375.506 204.073 378.664 202.889C381.901 201.705 385.376 201.113 389.086 201.113C393.034 201.113 396.074 201.705 398.206 202.889C400.417 204.073 402.114 205.77 403.298 207.981C405.904 205.928 408.865 204.271 412.181 203.008C415.576 201.744 419.563 201.113 424.143 201.113C430.617 201.113 435.394 202.81 438.473 206.205C441.552 209.52 443.092 214.612 443.092 221.479V258.423H427.34V223.256C427.34 219.545 426.551 216.901 424.972 215.322C423.392 213.664 420.866 212.836 417.392 212.836C412.655 212.836 408.707 214.533 405.549 217.927C405.943 219.269 406.141 220.887 406.141 222.782V258.423H391.218V223.256C391.218 219.782 390.626 217.177 389.442 215.441C388.257 213.704 385.968 212.836 382.573 212.836C380.204 212.836 377.954 213.467 375.822 214.73C373.769 215.914 371.914 217.296 370.256 218.874V258.423H354.504Z"/>
<path d="M456.167 258.423V202.297H470.971L471.563 207.744C474.247 205.691 477.169 204.073 480.327 202.889C483.564 201.705 487.038 201.113 490.749 201.113C494.697 201.113 497.737 201.705 499.868 202.889C502.079 204.073 503.777 205.77 504.961 207.981C507.567 205.928 510.527 204.271 513.844 203.008C517.239 201.744 521.226 201.113 525.805 201.113C532.28 201.113 537.056 202.81 540.136 206.205C543.215 209.52 544.755 214.612 544.755 221.479V258.423H529.003V223.256C529.003 219.545 528.213 216.901 526.634 215.322C525.055 213.664 522.529 212.836 519.055 212.836C514.317 212.836 510.369 214.533 507.211 217.927C507.606 219.269 507.803 220.887 507.803 222.782V258.423H492.881V223.256C492.881 219.782 492.289 217.177 491.104 215.441C489.92 213.704 487.63 212.836 484.235 212.836C481.867 212.836 479.616 213.467 477.485 214.73C475.432 215.914 473.576 217.296 471.918 218.874V258.423H456.167Z"/>
<path d="M561.738 191.995V179.444H579.147V191.995H561.738ZM563.04 258.423V214.138H554.632L556.053 202.297H579.029V258.423H563.04Z"/>
<path d="M592.642 258.423V202.297H607.446L608.038 207.626C610.328 205.889 613.21 204.389 616.684 203.126C620.237 201.784 623.948 201.113 627.817 201.113C635.239 201.113 640.647 202.85 644.042 206.323C647.437 209.796 649.135 215.164 649.135 222.427V258.423H633.146V223.256C633.146 219.467 632.357 216.783 630.778 215.204C629.277 213.625 626.435 212.836 622.25 212.836C619.803 212.836 617.316 213.388 614.789 214.493C612.341 215.598 610.289 216.98 608.631 218.638V258.423H592.642Z"/>
<path d="M685.839 279.264C681.654 279.264 677.351 278.987 672.93 278.435C668.587 277.882 664.916 277.093 661.915 276.066V264.107C665.073 265.133 668.784 265.923 673.048 266.475C677.312 267.107 681.299 267.423 685.01 267.423C690.458 267.423 694.405 267.107 696.853 266.475C699.301 265.923 700.524 264.897 700.524 263.397C700.524 262.134 699.972 261.265 698.866 260.792C697.84 260.318 695.629 260.081 692.234 260.081H676.956C666.929 260.081 661.915 256.371 661.915 248.951C661.915 246.661 662.547 244.569 663.81 242.675C665.073 240.78 667.087 239.28 669.85 238.175C663.455 234.939 660.257 229.492 660.257 221.835C660.257 214.572 662.507 209.323 667.008 206.086C671.508 202.771 678.18 201.113 687.023 201.113C688.839 201.113 690.813 201.271 692.945 201.587C695.155 201.823 696.814 202.06 697.919 202.297H719L718.645 212.362H709.762C712.21 214.651 713.434 217.848 713.434 221.953C713.434 227.716 711.618 232.334 707.986 235.807C704.354 239.202 698.985 240.899 691.879 240.899C690.616 240.899 689.392 240.859 688.207 240.78C687.102 240.622 685.957 240.465 684.773 240.307C682.404 240.622 680.391 241.175 678.733 241.964C677.154 242.754 676.364 243.82 676.364 245.161C676.364 246.977 677.983 247.885 681.22 247.885H697.09C702.775 247.885 707.157 249.187 710.236 251.792C713.315 254.319 714.855 258.029 714.855 262.923C714.855 268.449 712.368 272.554 707.394 275.238C702.419 277.922 695.234 279.264 685.839 279.264ZM687.142 231.9C691.879 231.9 695.155 231.11 696.971 229.531C698.866 227.874 699.814 225.111 699.814 221.243C699.814 217.375 698.866 214.572 696.971 212.836C695.155 211.099 691.879 210.231 687.142 210.231C682.641 210.231 679.404 211.099 677.43 212.836C675.456 214.493 674.469 217.296 674.469 221.243C674.469 224.874 675.377 227.558 677.193 229.295C679.088 231.031 682.404 231.9 687.142 231.9Z"/>
</mask>
<path d="M15.8041 80.8084L1 24.682H16.9885L25.5156 61.1523L34.8718 31.905V24.682H47.0704L57.7294 61.1523L66.0197 24.682H81.8897L67.204 80.8084H52.5184L41.741 48.0088L30.7267 80.8084H15.8041Z" stroke="#E6E6E6" stroke-width="0.4" mask="url(#path-1-outside-1)"/>
<path d="M116.936 81.9925C107.224 81.9925 99.5261 79.5848 93.8413 74.7695C88.1565 69.8752 85.3141 62.4943 85.3141 52.6268C85.3141 43.7066 87.6828 36.6414 92.4201 31.4314C97.2364 26.1424 104.382 23.4979 113.856 23.4979C122.542 23.4979 129.174 25.7872 133.753 30.3657C138.412 34.8653 140.741 40.7858 140.741 48.1272V58.3105H100.118C100.987 62.81 103.04 65.8887 106.277 67.5464C109.593 69.2042 114.251 70.0331 120.252 70.0331C123.252 70.0331 126.292 69.7568 129.371 69.2042C132.529 68.6516 135.214 67.9411 137.425 67.0728V78.4402C134.819 79.6243 131.779 80.4926 128.305 81.0452C124.831 81.6767 121.041 81.9925 116.936 81.9925ZM100.118 48.4824H126.766V45.4038C126.766 42.1672 125.818 39.6411 123.923 37.8255C122.028 35.931 118.831 34.9837 114.33 34.9837C109.04 34.9837 105.329 36.0494 103.197 38.1808C101.145 40.3121 100.118 43.746 100.118 48.4824Z" stroke="#E6E6E6" stroke-width="0.4" mask="url(#path-1-outside-1)"/>
<path d="M184.915 81.9925C180.968 81.9925 177.533 81.4794 174.612 80.4531C171.69 79.348 169.006 77.7297 166.558 75.5983L165.729 80.8084H151.873V1H167.861V27.7607C170.151 26.3397 172.717 25.2741 175.559 24.5636C178.402 23.8531 181.362 23.4979 184.442 23.4979C192.495 23.4979 198.851 25.7872 203.509 30.3657C208.247 34.8653 210.615 42.1672 210.615 52.2715C210.615 62.3759 208.286 69.8752 203.628 74.7695C199.048 79.5848 192.811 81.9925 184.915 81.9925ZM180.415 70.2699C185.547 70.2699 189.139 68.77 191.192 65.7703C193.324 62.7706 194.39 58.271 194.39 52.2715C194.39 46.0353 193.245 41.6541 190.955 39.128C188.745 36.523 185.192 35.2205 180.296 35.2205C177.849 35.2205 175.52 35.5757 173.309 36.2862C171.177 36.9966 169.361 38.0229 167.861 39.3649V65.1782C169.44 66.836 171.296 68.099 173.427 68.9674C175.638 69.8357 177.967 70.2699 180.415 70.2699Z" stroke="#E6E6E6" stroke-width="0.4" mask="url(#path-1-outside-1)"/>
<path d="M3.36866 284V202.297H17.2253L18.0544 207.507C20.502 205.455 23.1864 203.876 26.1078 202.771C29.0291 201.666 32.4637 201.113 36.4115 201.113C44.6228 201.113 50.9392 203.363 55.3607 207.862C59.8612 212.283 62.1114 219.545 62.1114 229.65C62.1114 239.754 59.7033 247.293 54.887 252.266C50.1497 257.16 43.6754 259.608 35.464 259.608C29.1476 259.608 23.7786 258.187 19.3571 255.345V284H3.36866ZM31.4373 247.885C36.1746 247.885 39.7671 246.425 42.2147 243.504C44.6623 240.583 45.8861 236.004 45.8861 229.768C45.8861 223.769 44.7807 219.467 42.57 216.861C40.3592 214.178 36.8062 212.836 31.911 212.836C27.0158 212.836 22.8312 214.533 19.3571 217.927V243.622C21.0152 244.885 22.7522 245.911 24.5682 246.701C26.4631 247.49 28.7528 247.885 31.4373 247.885Z" stroke="#E6E6E6" stroke-width="0.4" mask="url(#path-1-outside-1)"/>
<path d="M73.2256 258.423V202.297H88.0297L88.7403 208.099C91.2669 206.52 94.3857 205.099 98.0965 203.836C101.886 202.494 105.597 201.587 109.229 201.113V213.191C107.097 213.507 104.768 213.98 102.242 214.612C99.7151 215.243 97.307 215.954 95.0173 216.743C92.7276 217.532 90.7932 218.361 89.2141 219.23V258.423H73.2256Z" stroke="#E6E6E6" stroke-width="0.4" mask="url(#path-1-outside-1)"/>
<path d="M143.162 259.608C132.661 259.608 124.963 257.081 120.068 252.029C115.172 246.898 112.725 239.675 112.725 230.36C112.725 221.045 115.172 213.862 120.068 208.81C125.042 203.678 132.74 201.113 143.162 201.113C153.663 201.113 161.361 203.678 166.257 208.81C171.231 213.862 173.718 221.045 173.718 230.36C173.718 239.675 171.27 246.898 166.375 252.029C161.48 257.081 153.742 259.608 143.162 259.608ZM143.162 245.99C148.294 245.99 151.966 244.846 154.176 242.556C156.387 240.188 157.493 236.123 157.493 230.36C157.493 224.598 156.387 220.572 154.176 218.282C151.966 215.914 148.294 214.73 143.162 214.73C138.109 214.73 134.477 215.914 132.266 218.282C130.056 220.572 128.95 224.598 128.95 230.36C128.95 236.123 130.056 240.188 132.266 242.556C134.477 244.846 138.109 245.99 143.162 245.99Z" stroke="#E6E6E6" stroke-width="0.4" mask="url(#path-1-outside-1)"/>
<path d="M208.521 279.264C204.337 279.264 200.034 278.987 195.612 278.435C191.27 277.882 187.598 277.093 184.598 276.066V264.107C187.756 265.133 191.467 265.923 195.731 266.475C199.994 267.107 203.982 267.423 207.692 267.423C213.14 267.423 217.088 267.107 219.536 266.475C221.983 265.923 223.207 264.897 223.207 263.397C223.207 262.134 222.654 261.265 221.549 260.792C220.523 260.318 218.312 260.081 214.917 260.081H199.639C189.612 260.081 184.598 256.371 184.598 248.951C184.598 246.661 185.23 244.569 186.493 242.675C187.756 240.78 189.77 239.28 192.533 238.175C186.138 234.939 182.94 229.492 182.94 221.835C182.94 214.572 185.19 209.323 189.691 206.086C194.191 202.771 200.863 201.113 209.706 201.113C211.522 201.113 213.496 201.271 215.627 201.587C217.838 201.823 219.496 202.06 220.602 202.297H241.683L241.327 212.362H232.445C234.893 214.651 236.116 217.848 236.116 221.953C236.116 227.716 234.3 232.334 230.668 235.807C227.036 239.202 221.668 240.899 214.562 240.899C213.298 240.899 212.074 240.859 210.89 240.78C209.785 240.622 208.64 240.465 207.456 240.307C205.087 240.622 203.074 241.175 201.415 241.964C199.836 242.754 199.047 243.82 199.047 245.161C199.047 246.977 200.665 247.885 203.903 247.885H219.773C225.457 247.885 229.839 249.187 232.919 251.792C235.998 254.319 237.538 258.029 237.538 262.923C237.538 268.449 235.05 272.554 230.076 275.238C225.102 277.922 217.917 279.264 208.521 279.264ZM209.824 231.9C214.562 231.9 217.838 231.11 219.654 229.531C221.549 227.874 222.497 225.111 222.497 221.243C222.497 217.375 221.549 214.572 219.654 212.836C217.838 211.099 214.562 210.231 209.824 210.231C205.324 210.231 202.087 211.099 200.113 212.836C198.139 214.493 197.152 217.296 197.152 221.243C197.152 224.874 198.06 227.558 199.876 229.295C201.771 231.031 205.087 231.9 209.824 231.9Z" stroke="#E6E6E6" stroke-width="0.4" mask="url(#path-1-outside-1)"/>
<path d="M248.331 258.423V202.297H263.135L263.845 208.099C266.372 206.52 269.491 205.099 273.202 203.836C276.991 202.494 280.702 201.587 284.334 201.113V213.191C282.202 213.507 279.873 213.98 277.347 214.612C274.82 215.243 272.412 215.954 270.122 216.743C267.833 217.532 265.898 218.361 264.319 219.23V258.423H248.331Z" stroke="#E6E6E6" stroke-width="0.4" mask="url(#path-1-outside-1)"/>
<path d="M306.573 259.608C303.02 259.608 299.704 258.976 296.624 257.713C293.624 256.371 291.177 254.437 289.282 251.911C287.466 249.306 286.558 246.069 286.558 242.201C286.558 236.675 288.492 232.255 292.361 228.939C296.309 225.624 302.112 223.966 309.771 223.966H326.351V222.427C326.351 218.953 325.364 216.506 323.39 215.085C321.495 213.664 317.627 212.954 311.784 212.954C305.389 212.954 299.23 213.941 293.308 215.914V204.665C295.914 203.639 299.072 202.81 302.783 202.179C306.573 201.468 310.679 201.113 315.1 201.113C323.548 201.113 330.062 202.85 334.641 206.323C339.3 209.717 341.629 215.204 341.629 222.782V258.423H327.772L326.943 253.332C324.733 255.305 322.009 256.845 318.771 257.95C315.534 259.055 311.468 259.608 306.573 259.608ZM310.955 249.069C314.508 249.069 317.587 248.477 320.193 247.293C322.798 246.109 324.851 244.609 326.351 242.793V233.913H310.126C303.888 233.913 300.77 236.478 300.77 241.609C300.77 246.582 304.165 249.069 310.955 249.069Z" stroke="#E6E6E6" stroke-width="0.4" mask="url(#path-1-outside-1)"/>
<path d="M354.504 258.423V202.297H369.308L369.9 207.744C372.585 205.691 375.506 204.073 378.664 202.889C381.901 201.705 385.376 201.113 389.086 201.113C393.034 201.113 396.074 201.705 398.206 202.889C400.417 204.073 402.114 205.77 403.298 207.981C405.904 205.928 408.865 204.271 412.181 203.008C415.576 201.744 419.563 201.113 424.143 201.113C430.617 201.113 435.394 202.81 438.473 206.205C441.552 209.52 443.092 214.612 443.092 221.479V258.423H427.34V223.256C427.34 219.545 426.551 216.901 424.972 215.322C423.392 213.664 420.866 212.836 417.392 212.836C412.655 212.836 408.707 214.533 405.549 217.927C405.943 219.269 406.141 220.887 406.141 222.782V258.423H391.218V223.256C391.218 219.782 390.626 217.177 389.442 215.441C388.257 213.704 385.968 212.836 382.573 212.836C380.204 212.836 377.954 213.467 375.822 214.73C373.769 215.914 371.914 217.296 370.256 218.874V258.423H354.504Z" stroke="#E6E6E6" stroke-width="0.4" mask="url(#path-1-outside-1)"/>
<path d="M456.167 258.423V202.297H470.971L471.563 207.744C474.247 205.691 477.169 204.073 480.327 202.889C483.564 201.705 487.038 201.113 490.749 201.113C494.697 201.113 497.737 201.705 499.868 202.889C502.079 204.073 503.777 205.77 504.961 207.981C507.567 205.928 510.527 204.271 513.844 203.008C517.239 201.744 521.226 201.113 525.805 201.113C532.28 201.113 537.056 202.81 540.136 206.205C543.215 209.52 544.755 214.612 544.755 221.479V258.423H529.003V223.256C529.003 219.545 528.213 216.901 526.634 215.322C525.055 213.664 522.529 212.836 519.055 212.836C514.317 212.836 510.369 214.533 507.211 217.927C507.606 219.269 507.803 220.887 507.803 222.782V258.423H492.881V223.256C492.881 219.782 492.289 217.177 491.104 215.441C489.92 213.704 487.63 212.836 484.235 212.836C481.867 212.836 479.616 213.467 477.485 214.73C475.432 215.914 473.576 217.296 471.918 218.874V258.423H456.167Z" stroke="#E6E6E6" stroke-width="0.4" mask="url(#path-1-outside-1)"/>
<path d="M561.738 191.995V179.444H579.147V191.995H561.738ZM563.04 258.423V214.138H554.632L556.053 202.297H579.029V258.423H563.04Z" stroke="#E6E6E6" stroke-width="0.4" mask="url(#path-1-outside-1)"/>
<path d="M592.642 258.423V202.297H607.446L608.038 207.626C610.328 205.889 613.21 204.389 616.684 203.126C620.237 201.784 623.948 201.113 627.817 201.113C635.239 201.113 640.647 202.85 644.042 206.323C647.437 209.796 649.135 215.164 649.135 222.427V258.423H633.146V223.256C633.146 219.467 632.357 216.783 630.778 215.204C629.277 213.625 626.435 212.836 622.25 212.836C619.803 212.836 617.316 213.388 614.789 214.493C612.341 215.598 610.289 216.98 608.631 218.638V258.423H592.642Z" stroke="#E6E6E6" stroke-width="0.4" mask="url(#path-1-outside-1)"/>
<path d="M685.839 279.264C681.654 279.264 677.351 278.987 672.93 278.435C668.587 277.882 664.916 277.093 661.915 276.066V264.107C665.073 265.133 668.784 265.923 673.048 266.475C677.312 267.107 681.299 267.423 685.01 267.423C690.458 267.423 694.405 267.107 696.853 266.475C699.301 265.923 700.524 264.897 700.524 263.397C700.524 262.134 699.972 261.265 698.866 260.792C697.84 260.318 695.629 260.081 692.234 260.081H676.956C666.929 260.081 661.915 256.371 661.915 248.951C661.915 246.661 662.547 244.569 663.81 242.675C665.073 240.78 667.087 239.28 669.85 238.175C663.455 234.939 660.257 229.492 660.257 221.835C660.257 214.572 662.507 209.323 667.008 206.086C671.508 202.771 678.18 201.113 687.023 201.113C688.839 201.113 690.813 201.271 692.945 201.587C695.155 201.823 696.814 202.06 697.919 202.297H719L718.645 212.362H709.762C712.21 214.651 713.434 217.848 713.434 221.953C713.434 227.716 711.618 232.334 707.986 235.807C704.354 239.202 698.985 240.899 691.879 240.899C690.616 240.899 689.392 240.859 688.207 240.78C687.102 240.622 685.957 240.465 684.773 240.307C682.404 240.622 680.391 241.175 678.733 241.964C677.154 242.754 676.364 243.82 676.364 245.161C676.364 246.977 677.983 247.885 681.22 247.885H697.09C702.775 247.885 707.157 249.187 710.236 251.792C713.315 254.319 714.855 258.029 714.855 262.923C714.855 268.449 712.368 272.554 707.394 275.238C702.419 277.922 695.234 279.264 685.839 279.264ZM687.142 231.9C691.879 231.9 695.155 231.11 696.971 229.531C698.866 227.874 699.814 225.111 699.814 221.243C699.814 217.375 698.866 214.572 696.971 212.836C695.155 211.099 691.879 210.231 687.142 210.231C682.641 210.231 679.404 211.099 677.43 212.836C675.456 214.493 674.469 217.296 674.469 221.243C674.469 224.874 675.377 227.558 677.193 229.295C679.088 231.031 682.404 231.9 687.142 231.9Z" stroke="#E6E6E6" stroke-width="0.4" mask="url(#path-1-outside-1)"/>
</svg>
