<svg width="29" height="29" viewBox="0 0 29 29" fill="none" xmlns="http://www.w3.org/2000/svg">
<path d="M27.84 0H1.16C0.518375 0 0 0.518375 0 1.16V27.84C0 28.4816 0.518375 29 1.16 29H27.84C28.4816 29 29 28.4816 29 27.84V1.16C29 0.518375 28.4816 0 27.84 0ZM17.6356 8.66012H22.6526V9.88175H17.6356V8.66012ZM14.5 18.734C14.2653 19.1794 13.9303 19.5642 13.5212 19.8577C13.0935 20.155 12.6186 20.3725 12.1148 20.4994C11.5876 20.6406 11.0438 20.7101 10.498 20.706H4.495V8.34112H10.3312C10.9221 8.34112 11.4586 8.3955 11.948 8.497C12.4337 8.5985 12.847 8.7725 13.195 9.00812C13.5394 9.24375 13.8112 9.55912 14.0034 9.95062C14.1919 10.3385 14.2898 10.8242 14.2898 11.4006C14.2898 12.0241 14.1484 12.5389 13.8656 12.9557C13.5792 13.3726 13.166 13.7097 12.6041 13.9744C13.369 14.1919 13.9309 14.5798 14.3006 15.1235C14.6776 15.6745 14.8625 16.3342 14.8625 17.11C14.8625 17.7407 14.7429 18.2809 14.5 18.734ZM24.6065 16.82H18.1395C18.1395 17.5232 18.3824 18.1975 18.7485 18.56C19.1182 18.9189 19.6475 19.1001 20.3399 19.1001C20.8401 19.1001 21.2642 18.9732 21.6267 18.7231C21.9856 18.473 22.2031 18.2084 22.2829 17.9329H24.4506C24.1026 19.0095 23.5734 19.778 22.8556 20.242C22.1451 20.706 21.2751 20.938 20.2637 20.938C19.5569 20.938 18.9225 20.822 18.3534 20.6009C17.806 20.387 17.313 20.0607 16.907 19.6402C16.5067 19.2084 16.1973 18.7005 15.9971 18.1467C15.776 17.5341 15.6673 16.8889 15.6745 16.24C15.6745 15.5694 15.7869 14.9459 16.0044 14.3659C16.4212 13.2385 17.2876 12.3359 18.3933 11.8682C18.9841 11.6217 19.6185 11.4985 20.2601 11.5057C21.0214 11.5057 21.6811 11.6507 22.2539 11.948C22.8053 12.2318 23.284 12.6387 23.6531 13.137C24.0192 13.6336 24.2766 14.1991 24.4397 14.8371C24.5956 15.4642 24.65 16.124 24.6065 16.82V16.82ZM20.184 13.3545C19.7925 13.3545 19.4626 13.4234 19.2089 13.5575C18.9551 13.6916 18.7449 13.8584 18.5854 14.0505C18.4335 14.236 18.3212 14.4507 18.2555 14.6812C18.1975 14.8734 18.1576 15.0691 18.1431 15.2685H22.1487C22.0907 14.6414 21.8733 14.1774 21.5833 13.8511C21.2788 13.5285 20.7894 13.3545 20.184 13.3545V13.3545ZM11.1759 12.9884C11.4912 12.76 11.6435 12.383 11.6435 11.8646C11.6544 11.6181 11.6036 11.3753 11.4949 11.1541C11.397 10.9765 11.252 10.8279 11.0744 10.7227C10.8902 10.6111 10.6856 10.5371 10.4726 10.5052C10.2406 10.4617 10.005 10.44 9.773 10.4436H7.22462V13.3327H9.98325C10.4581 13.3364 10.8605 13.2204 11.1759 12.9884V12.9884ZM11.6036 15.5984C11.2484 15.3265 10.7735 15.1924 10.1826 15.1924H7.21738V18.5999H10.1246C10.3965 18.5999 10.6466 18.5745 10.8895 18.5237C11.1324 18.473 11.3499 18.386 11.5348 18.2627C11.7196 18.1431 11.8682 17.98 11.9806 17.7697C12.0894 17.5595 12.1437 17.2912 12.1437 16.9686C12.1437 16.327 11.9625 15.8739 11.6036 15.5984V15.5984Z" fill="#E6E6E6"/>
</svg>
