<svg width="61" height="60" viewBox="0 0 61 60" fill="none" xmlns="http://www.w3.org/2000/svg">
<path d="M0.592224 52.2635C0.592224 56.5366 4.05605 60 8.32871 60H52.8555C57.1289 60 60.5922 56.5362 60.5922 52.2635V7.73672C60.5922 3.46336 57.1284 0 52.8557 0H8.32894C4.05558 0 0.592224 3.46383 0.592224 7.73648V52.2633V52.2635Z" fill="#563D7C"/>
<path d="M25.473 26.5402V18.0434H32.9522C33.6647 18.0434 34.3514 18.1027 35.0129 18.2215C35.6743 18.3401 36.2595 18.552 36.7683 18.8573C37.2769 19.1627 37.684 19.5867 37.9894 20.1293C38.2946 20.6721 38.4474 21.3675 38.4474 22.2152C38.4474 23.7417 37.9894 24.8442 37.0735 25.5225C36.1578 26.201 34.9875 26.5402 33.5628 26.5402H25.473V26.5402ZM17.4848 11.8359V48.1641H35.0893C36.7175 48.1641 38.3033 47.9606 39.8466 47.5535C41.39 47.1464 42.7637 46.519 43.9679 45.671C45.1719 44.823 46.1303 43.729 46.8425 42.3893C47.555 41.0494 47.911 39.4636 47.911 37.632C47.911 35.3592 47.3598 33.4174 46.2575 31.8063C45.155 30.195 43.4844 29.0672 41.2456 28.4227C42.8738 27.6427 44.1036 26.6419 44.9347 25.4208C45.7656 24.1997 46.1811 22.6734 46.1811 20.8416C46.1811 19.1456 45.9013 17.7211 45.3416 16.5677C44.7819 15.4146 43.9932 14.4902 42.9756 13.7948C41.9581 13.0995 40.737 12.5991 39.3123 12.2939C37.8877 11.9885 36.3104 11.8359 34.5804 11.8359H17.4848V11.8359ZM25.473 41.9566V31.9842H34.1733C35.9033 31.9842 37.294 32.3827 38.3457 33.18C39.3971 33.9771 39.923 35.3084 39.923 37.174C39.923 38.1239 39.7618 38.9039 39.4395 39.5145C39.1173 40.125 38.6848 40.6085 38.142 40.9645C37.5994 41.3208 36.9718 41.5751 36.2595 41.7279C35.547 41.8802 34.801 41.9566 34.0207 41.9566H25.473V41.9566Z" fill="white"/>
</svg>
