<svg width="44" height="60" viewBox="0 0 44 60" fill="none" xmlns="http://www.w3.org/2000/svg">
<path d="M33.8175 2.22016H30.2916L33.9591 6.20204V8.09578H26.4033V5.87802H30.0708L26.4033 1.89614V0H33.8199L33.8175 2.22016ZM24.9032 2.22016H21.3726L25.0448 6.20204V8.09578H17.4867V5.87802H21.1541L17.4867 1.89614V0H24.9032V2.22016ZM16.0754 2.31137H12.2711V5.78682H16.0754V8.09818H9.56369V0H16.0754V2.31137Z" fill="#EBEBEB"/>
<path d="M4.377 55.1829L0.507904 11.7947H43.0151L39.1412 55.1757L21.7351 60.0001L4.377 55.1829Z" fill="#1572B6"/>
<path d="M21.7615 56.3132L35.8266 52.4129L39.1341 15.342H21.7615V56.3132Z" fill="#33A9DC"/>
<path d="M21.7615 31.0606H28.8037L29.2885 25.6122H21.7615V20.2935H35.1066L34.9793 21.7216L33.6712 36.3865H21.7615V31.0606Z" fill="white"/>
<path d="M21.7902 44.8814H21.7662L15.8402 43.2804L15.4609 39.0369H10.123L10.8694 47.392L21.771 50.4259H21.8022V44.8814H21.7902Z" fill="#EBEBEB"/>
<path d="M28.3523 36.154L27.7114 43.2754L21.7758 44.8763V50.4207L32.6846 47.3965L32.7638 46.4964L33.6903 36.1516H28.3523V36.154Z" fill="white"/>
<path d="M21.7807 20.2935V25.6146H8.93014L8.81973 24.4193L8.57731 21.7216L8.4501 20.2935H21.7807ZM21.7615 31.0606V36.3817H15.9027L15.7995 35.1865L15.557 32.4887L15.4298 31.0606H21.7591H21.7615Z" fill="#EBEBEB"/>
</svg>
