<svg width="61" height="60" viewBox="0 0 61 60" fill="none" xmlns="http://www.w3.org/2000/svg">
<path d="M54.0297 0H7.15472C3.53036 0 0.592224 2.93813 0.592224 6.5625V53.4375C0.592224 57.0619 3.53036 60 7.15472 60H54.0297C57.6541 60 60.5922 57.0619 60.5922 53.4375V6.5625C60.5922 2.93813 57.6541 0 54.0297 0Z" fill="#092E20"/>
<path d="M44.2744 22.0777V37.5996C44.2744 42.9478 43.8831 45.5129 42.7092 47.7304C41.622 49.8613 40.187 51.2088 37.2306 52.6873L31.0129 49.7306C33.9696 48.3394 35.4043 47.1223 36.3173 45.252C37.2741 43.339 37.5787 41.1215 37.5787 35.2953V22.0777H44.2744ZM33.6224 11.7373V42.7306C30.1874 43.3828 27.6655 43.6437 24.9265 43.6437C16.7521 43.6437 12.4911 39.9482 12.4911 32.8607C12.4911 26.0343 17.0133 21.5997 24.0132 21.5997C25.1001 21.5997 25.9262 21.6864 26.9264 21.9472V11.7373H33.6224ZM24.6657 26.9908C21.2742 26.9908 19.3175 29.0779 19.3175 32.73C19.3175 36.2956 21.1873 38.252 24.6222 38.252C25.361 38.252 25.97 38.2085 26.9264 38.0784V27.3383C26.1439 27.0777 25.4917 26.9908 24.6657 26.9908ZM44.2744 11.7729V18.6428H37.5787V11.7729H44.2744Z" fill="#FFFFFD"/>
</svg>
