<svg width="29" height="29" viewBox="0 0 29 29" fill="none" xmlns="http://www.w3.org/2000/svg">
<path fill-rule="evenodd" clip-rule="evenodd" d="M14.5 0C6.49479 0 0 6.49479 0 14.5C0 22.5052 6.49479 29 14.5 29C22.4895 29 29 22.5052 29 14.5C29 6.49479 22.4895 0 14.5 0ZM24.0773 6.68329C25.8625 8.85749 26.8504 11.5769 26.877 14.39C26.4685 14.3115 22.3795 13.4777 18.2591 13.9973C18.1637 13.7919 18.0851 13.572 17.9909 13.3521C17.7346 12.7472 17.4622 12.1493 17.174 11.5589C21.7343 9.70292 23.8102 7.03008 24.0773 6.68329V6.68329ZM14.5 2.13996C17.6453 2.13996 20.5235 3.31808 22.7094 5.25263C22.4895 5.56679 20.6178 8.06804 16.2146 9.71863C14.1846 5.99213 11.9371 2.93988 11.5903 2.46863C12.5441 2.24591 13.5206 2.13521 14.5 2.13875V2.13996ZM9.23167 3.30238C9.56154 3.74342 11.7631 6.81017 13.8233 10.4581C8.03542 12 2.92417 11.9685 2.37438 11.9685C3.17671 8.13087 5.77221 4.93846 9.23167 3.30238ZM2.10733 14.5157V14.1387C2.64263 14.1544 8.64925 14.233 14.8311 12.377C15.1924 13.0693 15.5223 13.7762 15.8364 14.4843C15.6793 14.5314 15.5065 14.5785 15.3495 14.6257C8.96463 16.6859 5.56679 22.3155 5.28404 22.788C3.23883 20.5181 2.10709 17.571 2.10733 14.5157V14.5157ZM14.5 26.8927C11.6375 26.8927 8.99604 25.9175 6.90442 24.2827C7.12433 23.8259 9.64008 18.9817 16.623 16.5445C16.6545 16.5288 16.6714 16.5288 16.7016 16.5131C18.4476 21.0262 19.1545 24.8168 19.3442 25.9018C17.8495 26.5471 16.2146 26.8927 14.5 26.8927ZM21.4044 24.7696C21.2788 24.0144 20.6178 20.3979 18.9974 15.9464C22.8822 15.3337 26.2788 16.3403 26.7042 16.4817C26.1689 19.9254 24.1872 22.8979 21.4044 24.7696Z" fill="#E6E6E6"/>
</svg>
