<svg width="41" height="60" viewBox="0 0 41 60" fill="none" xmlns="http://www.w3.org/2000/svg">
<path d="M10.5554 59.9999C16.0754 59.9999 20.5554 55.5199 20.5554 49.9998V39.9998H10.5554C5.03541 39.9998 0.55542 44.4798 0.55542 49.9998C0.55542 55.5199 5.03541 59.9999 10.5554 59.9999Z" fill="#0ACF83"/>
<path d="M0.55542 29.9997C0.55542 24.4797 5.03541 19.9998 10.5554 19.9998H20.5554V39.9996H10.5554C5.03541 39.9996 0.55542 35.5197 0.55542 29.9997Z" fill="#A259FF"/>
<path d="M0.55542 9.99998C0.55542 4.47999 5.03541 0 10.5554 0H20.5554V20H10.5554C5.03541 20 0.55542 15.52 0.55542 9.99998Z" fill="#F24E1E"/>
<path d="M20.5553 0H30.5553C36.0754 0 40.5554 4.47999 40.5554 9.99998C40.5554 15.52 36.0754 20 30.5553 20H20.5553V0Z" fill="#FF7262"/>
<path d="M40.5554 29.9997C40.5554 35.5197 36.0754 39.9996 30.5553 39.9996C25.0353 39.9996 20.5553 35.5197 20.5553 29.9997C20.5553 24.4797 25.0353 19.9998 30.5553 19.9998C36.0754 19.9998 40.5554 24.4797 40.5554 29.9997Z" fill="#1ABCFE"/>
</svg>
