<svg width="31" height="29" viewBox="0 0 31 29" fill="none" xmlns="http://www.w3.org/2000/svg">
<path d="M15.8083 0C7.61652 0 0.973877 6.64148 0.973877 14.8344C0.973877 21.3887 5.22438 26.9493 11.1186 28.9108C11.8599 29.0481 12.1322 28.589 12.1322 28.1972C12.1322 27.8435 12.1183 26.6748 12.112 25.4353C7.98498 26.3327 7.11415 23.685 7.11415 23.685C6.43936 21.9704 5.46707 21.5145 5.46707 21.5145C4.12121 20.5938 5.56852 20.6126 5.56852 20.6126C7.05819 20.7173 7.84258 22.1414 7.84258 22.1414C9.16564 24.4093 11.3129 23.7536 12.1594 23.3746C12.2925 22.4157 12.677 21.7614 13.1012 21.391C9.80635 21.0158 6.34256 19.7438 6.34256 14.0597C6.34256 12.4402 6.92207 11.1168 7.87108 10.0779C7.71704 9.70423 7.20932 8.19549 8.01477 6.15214C8.01477 6.15214 9.26046 5.75343 12.0953 7.67275C13.2785 7.34397 14.5476 7.17922 15.8083 7.17364C17.069 7.17922 18.339 7.34397 19.5245 7.67275C22.356 5.75343 23.5999 6.15214 23.5999 6.15214C24.4074 8.19549 23.8994 9.70423 23.7454 10.0779C24.6965 11.1168 25.272 12.4401 25.272 14.0597C25.272 19.7573 21.8017 21.0119 18.4985 21.3791C19.0305 21.8395 19.5046 22.7423 19.5046 24.1262C19.5046 26.111 19.4874 27.7085 19.4874 28.1972C19.4874 28.5919 19.7544 29.0545 20.5065 28.9089C26.3974 26.9451 30.6426 21.3865 30.6426 14.8344C30.6426 6.64148 24.0009 0 15.8083 0Z" fill="#E6E6E6"/>
<path d="M6.52986 21.1319C6.49728 21.2056 6.38117 21.2277 6.27565 21.1772C6.16803 21.1288 6.10753 21.0283 6.14243 20.9543C6.17443 20.8784 6.29054 20.8572 6.39792 20.9082C6.50577 20.9565 6.5672 21.0579 6.52986 21.1319V21.1319ZM7.25956 21.783C7.18882 21.8486 7.05049 21.8181 6.9566 21.7145C6.85957 21.611 6.84142 21.4728 6.91321 21.4061C6.98615 21.3406 7.1203 21.3712 7.21756 21.4748C7.31459 21.5794 7.33344 21.7168 7.25944 21.7831L7.25956 21.783ZM7.76018 22.616C7.6692 22.6792 7.52052 22.62 7.42872 22.488C7.33786 22.3562 7.33786 22.198 7.4307 22.1346C7.52284 22.0712 7.6692 22.1282 7.76228 22.2591C7.85302 22.3932 7.85302 22.5514 7.76007 22.6161L7.76018 22.616ZM8.60669 23.5808C8.52537 23.6704 8.35225 23.6465 8.22544 23.5241C8.09583 23.4045 8.05965 23.2347 8.14121 23.145C8.22346 23.0552 8.39763 23.0804 8.52537 23.2018C8.65416 23.3212 8.69349 23.4922 8.60681 23.5808H8.60669ZM9.70078 23.9066C9.66507 24.0227 9.49823 24.0755 9.33023 24.0262C9.16246 23.9754 9.05264 23.8392 9.08649 23.7219C9.1214 23.6049 9.28893 23.5499 9.45821 23.6027C9.62574 23.6533 9.7358 23.7884 9.7009 23.9066H9.70078ZM10.9461 24.0447C10.9503 24.1671 10.8078 24.2686 10.6314 24.2708C10.454 24.2746 10.3105 24.1756 10.3087 24.0553C10.3087 23.9317 10.4479 23.8312 10.6252 23.8283C10.8016 23.8248 10.9461 23.9231 10.9461 24.0447V24.0447ZM12.1693 23.9978C12.1905 24.1172 12.0679 24.2398 11.8928 24.2724C11.7206 24.3038 11.5612 24.2302 11.5392 24.1118C11.5178 23.9894 11.6428 23.8669 11.8146 23.8352C11.9901 23.8047 12.147 23.8765 12.1693 23.9978" fill="#E6E6E6"/>
</svg>
