<svg width="43" height="60" viewBox="0 0 43 60" fill="none" xmlns="http://www.w3.org/2000/svg">
<path d="M42.5079 11.7913L38.6354 55.1741L21.228 60L3.86855 55.1808L0 11.7913H42.5079Z" fill="#E44D26"/>
<path d="M21.2539 56.3112L35.3199 52.4117L38.6291 15.3391H21.2539V56.3112Z" fill="#F16529"/>
<path d="M13.726 25.9824H21.2541V20.6609H7.91022L8.03752 22.0885L9.34553 36.7533H21.2541V31.4317H14.2123L13.726 25.9824V25.9824ZM14.9253 39.4141H9.58331L10.3288 47.7697L21.2296 50.7957L21.2541 50.789V45.2524L21.2308 45.2585L15.3042 43.6582L14.9253 39.4141V39.4141Z" fill="#EBEBEB"/>
<path d="M3.95511 0H6.65945V2.67184H9.13334V0H11.8378V8.09102H9.13351V5.38168H6.65961V8.09102H3.95528V0H3.95511ZM15.394 2.68318H13.0136V0H20.4807V2.68318H18.0988V8.09102H15.3945V2.68318H15.3943H15.394ZM21.6658 0H24.4856L26.2201 2.84297L27.9531 0H30.774V8.09102H28.0807V4.08067L26.2201 6.95746H26.1735L24.3118 4.08067V8.09102H21.6658V0ZM32.1199 0H34.825V5.41667H38.6281V8.09102H32.1197V0H32.1199Z" fill="#EBEBEB"/>
<path d="M21.236 36.7533H27.7889L27.1711 43.6549L21.2359 45.2569V50.7932L32.1454 47.7697L32.2253 46.8706L33.476 32.8607L33.6058 31.4317H21.236V36.7533ZM21.236 25.9694V25.9824H34.0901L34.1967 24.7864L34.4393 22.0885L34.5664 20.6609H21.236V25.9696V25.9694Z" fill="white"/>
</svg>
