<svg width="62" height="60" viewBox="0 0 62 60" fill="none" xmlns="http://www.w3.org/2000/svg">
<path d="M2.58085 2.56396H58.9912V57.4357H2.58085V2.56396Z" fill="url(#paint0_radial)"/>
<path d="M2.58092 2.56406H58.9913V57.4358H2.58092V2.56406ZM0.0168457 60H61.5554V0H0.0168457V60ZM40.3246 21.3846C40.3246 21.1795 40.4015 21.0768 40.6323 21.0768H44.6579C44.8629 21.0768 44.9656 21.1538 44.9656 21.3846V41.6154C44.9656 41.8204 44.9143 41.9231 44.6579 41.9231H40.6836C40.4272 41.9231 40.3502 41.7949 40.3502 41.5898V21.3846H40.3246ZM40.0425 15.564C40.0425 13.923 41.1963 12.9487 42.658 12.9487C44.2221 12.9487 45.2733 14 45.2733 15.564C45.2733 17.2563 44.1708 18.1794 42.6067 18.1794C41.1194 18.1795 40.0425 17.2563 40.0425 15.564ZM28.5041 29.8205C27.7862 26.9743 26.0939 20.7692 25.4528 17.7692H25.4015C24.863 20.7692 23.5041 25.846 22.4272 29.8205H28.5041V29.8205ZM21.3759 33.9744L19.3502 41.6667C19.2989 41.8717 19.222 41.923 18.9656 41.923H15.1964C14.94 41.923 14.8886 41.846 14.94 41.5384L22.222 16.0512C22.3502 15.5897 22.4271 15.1794 22.4784 13.923C22.4784 13.7436 22.5553 13.6667 22.6835 13.6667H28.0681C28.2476 13.6667 28.3245 13.7179 28.3759 13.923L36.5297 41.5897C36.581 41.7947 36.5297 41.923 36.3246 41.923H32.0681C31.863 41.923 31.7347 41.8717 31.6835 41.6923L29.5809 33.9744H21.3759V33.9744Z" fill="#FF7F18"/>
<defs>
<radialGradient id="paint0_radial" cx="0" cy="0" r="1" gradientUnits="userSpaceOnUse" gradientTransform="translate(21.1597 14.8608) scale(42.8719 41.5076)">
<stop stop-color="#423325" stop-opacity="0.98"/>
<stop offset="1" stop-color="#1C0A00"/>
</radialGradient>
</defs>
</svg>
