<svg width="29" height="29" viewBox="0 0 29 29" fill="none" xmlns="http://www.w3.org/2000/svg">
<path d="M9.66784 14.5C9.66784 11.8307 11.8312 9.66628 14.5006 9.66628C17.17 9.66628 19.3345 11.8307 19.3345 14.5C19.3345 17.1693 17.17 19.3337 14.5006 19.3337C11.8312 19.3337 9.66784 17.1693 9.66784 14.5ZM7.05469 14.5C7.05469 18.6122 10.3882 21.9456 14.5006 21.9456C18.613 21.9456 21.9465 18.6122 21.9465 14.5C21.9465 10.3878 18.613 7.0544 14.5006 7.0544C10.3882 7.0544 7.05469 10.3878 7.05469 14.5ZM20.5011 6.75925C20.5011 7.71967 21.28 8.49972 22.2417 8.49972C23.2021 8.49972 23.9822 7.71967 23.9822 6.75925C23.9822 5.79883 23.2033 5.01995 22.2417 5.01995C21.28 5.01995 20.5011 5.79883 20.5011 6.75925ZM8.64179 26.3026C7.22804 26.2382 6.45967 26.0028 5.94899 25.8037C5.27198 25.5401 4.78941 25.2263 4.28107 24.7191C3.7739 24.212 3.45882 23.7294 3.19645 23.0524C2.99733 22.5418 2.76191 21.7734 2.69748 20.3597C2.62721 18.8313 2.61315 18.3721 2.61315 14.5C2.61315 10.6279 2.62838 10.1699 2.69748 8.64027C2.76191 7.22658 2.99851 6.45941 3.19645 5.94758C3.45999 5.2706 3.7739 4.78805 4.28107 4.27973C4.78824 3.77258 5.27081 3.45751 5.94899 3.19515C6.45967 2.99604 7.22804 2.76062 8.64179 2.6962C10.1703 2.62593 10.6295 2.61187 14.5006 2.61187C18.3729 2.61187 18.8309 2.6271 20.3606 2.6962C21.7743 2.76062 22.5415 2.99721 23.0534 3.19515C23.7304 3.45751 24.2129 3.77258 24.7213 4.27973C25.2284 4.78687 25.5423 5.2706 25.8059 5.94758C26.005 6.45824 26.2404 7.22658 26.3049 8.64027C26.3751 10.1699 26.3892 10.6279 26.3892 14.5C26.3892 18.371 26.3751 18.8301 26.3049 20.3597C26.2404 21.7734 26.0038 22.5418 25.8059 23.0524C25.5423 23.7294 25.2284 24.212 24.7213 24.7191C24.2141 25.2263 23.7304 25.5401 23.0534 25.8037C22.5427 26.0028 21.7743 26.2382 20.3606 26.3026C18.832 26.3729 18.3729 26.387 14.5006 26.387C10.6295 26.387 10.1703 26.3729 8.64179 26.3026V26.3026ZM8.52232 0.0878433C6.97855 0.158118 5.92439 0.402908 5.00259 0.761309C4.04915 1.13142 3.24096 1.62803 2.43394 2.43384C1.62809 3.23966 1.13147 4.04782 0.761339 5.00238C0.402924 5.92415 0.158124 6.97827 0.0878469 8.52197C0.0163981 10.068 0 10.5623 0 14.5C0 18.4377 0.0163981 18.932 0.0878469 20.478C0.158124 22.0217 0.402924 23.0758 0.761339 23.9976C1.13147 24.951 1.62692 25.7603 2.43394 26.5662C3.23979 27.372 4.04798 27.8674 5.00259 28.2387C5.92556 28.5971 6.97855 28.8419 8.52232 28.9122C10.0696 28.9824 10.5627 29 14.5006 29C18.4396 29 18.9328 28.9836 20.4789 28.9122C22.0226 28.8419 23.0768 28.5971 23.9986 28.2387C24.952 27.8674 25.7602 27.372 26.5672 26.5662C27.3731 25.7603 27.8685 24.951 28.2398 23.9976C28.5982 23.0758 28.8442 22.0217 28.9133 20.478C28.9836 18.9308 29 18.4377 29 14.5C29 10.5623 28.9836 10.068 28.9133 8.52197C28.843 6.97827 28.5982 5.92415 28.2398 5.00238C27.8685 4.04899 27.3731 3.24083 26.5672 2.43384C25.7614 1.62803 24.952 1.13142 23.9998 0.761309C23.0768 0.402908 22.0226 0.156947 20.48 0.0878433C18.9339 0.0175687 18.4396 0 14.5018 0C10.5627 0 10.0696 0.0163974 8.52232 0.0878433" fill="#E6E6E6"/>
</svg>
