<svg width="61" height="60" viewBox="0 0 61 60" fill="none" xmlns="http://www.w3.org/2000/svg">
<path d="M0.0151367 0H60.0151V60H0.0151367V0Z" fill="#F7DF1E"/>
<path d="M15.7914 50.1401L20.3828 47.3613C21.2688 48.9319 22.0746 50.2608 24.0074 50.2608C25.8602 50.2608 27.0285 49.5361 27.0285 46.7171V27.5456H32.6669V46.7967C32.6669 52.6367 29.2436 55.2949 24.2491 55.2949C19.7385 55.2949 17.1203 52.9589 15.7912 50.1396L15.7914 50.1401ZM35.7295 49.5359L40.3204 46.8778C41.5291 48.8515 43.0999 50.3013 45.8786 50.3013C48.2151 50.3013 49.7048 49.1332 49.7048 47.5221C49.7048 45.589 48.1743 44.9042 45.5967 43.7768L44.1874 43.1721C40.1193 41.4408 37.421 39.2658 37.421 34.6744C37.421 30.4453 40.6429 27.2231 45.6775 27.2231C49.2621 27.2231 51.8397 28.4719 53.6922 31.7342L49.3019 34.5537C48.3351 32.8219 47.2884 32.1373 45.6773 32.1373C44.0259 32.1373 42.9787 33.1845 42.9787 34.5537C42.9787 36.2452 44.0259 36.9303 46.4423 37.9774L47.8518 38.5814C52.6448 40.6357 55.3432 42.7299 55.3432 47.4417C55.3432 52.5169 51.356 55.2956 45.9993 55.2956C40.7636 55.2956 37.3804 52.7986 35.7292 49.5361" fill="black"/>
</svg>
