<svg width="29" height="29" viewBox="0 0 29 29" fill="none" xmlns="http://www.w3.org/2000/svg">
<path d="M0 2.07548C0 0.92988 0.959081 0 2.14135 0H26.8325C28.0152 0 28.9739 0.92988 28.9739 2.07548V26.8987C28.9739 28.0447 28.0152 28.9739 26.8325 28.9739H2.14135C0.959194 28.9739 0 28.0448 0 26.8991V2.07514V2.07548Z" fill="#E6E6E6"/>
<path d="M8.80491 24.2472V11.203H4.46924V24.2472H8.80536H8.80491ZM6.63798 9.4224C8.1496 9.4224 9.09069 8.42076 9.09069 7.169C9.06239 5.88872 8.1496 4.91504 6.66673 4.91504C5.18284 4.91504 4.21368 5.88872 4.21368 7.16889C4.21368 8.42065 5.15443 9.42229 6.60957 9.42229H6.63764L6.63798 9.4224ZM11.2048 24.2472H15.5401V16.9635C15.5401 16.5742 15.5684 16.1838 15.6829 15.9058C15.9962 15.1265 16.7096 14.3199 17.9076 14.3199C19.476 14.3199 20.1038 15.516 20.1038 17.2697V24.2472H24.439V16.7681C24.439 12.7616 22.3004 10.8972 19.4479 10.8972C17.1093 10.8972 16.0822 12.2043 15.5116 13.0946H15.5404V11.2035H11.205C11.2616 12.4272 11.2046 24.2476 11.2046 24.2476L11.2048 24.2472Z" fill="#1B1C22"/>
</svg>
