<svg width="30" height="29" viewBox="0 0 30 29" fill="none" xmlns="http://www.w3.org/2000/svg">
<path d="M0.642578 0H29.6165V28.9739H0.642578V0Z" fill="#E6E6E6"/>
<path d="M7.55679 9.68996C7.56872 9.57214 7.55273 9.45317 7.51011 9.34268C7.46749 9.23219 7.39944 9.1333 7.31148 9.05402L5.49385 6.86448V6.5376H11.1371L15.4988 16.1036L19.3337 6.5376H24.7132V6.86463L23.1593 8.35448C23.0936 8.40459 23.0428 8.47167 23.0123 8.54852C22.9819 8.62537 22.973 8.70906 22.9866 8.79058V19.7374C22.973 19.8189 22.9819 19.9026 23.0123 19.9794C23.0428 20.0563 23.0936 20.1233 23.1593 20.1734L24.6768 21.6633V21.9903H17.0437V21.6633L18.6157 20.137C18.7703 19.9825 18.7703 19.9372 18.7703 19.7011V10.8528L14.3994 21.9539H13.8086L8.71991 10.8528V18.293C8.69898 18.4473 8.71347 18.6045 8.76228 18.7524C8.81109 18.9004 8.89294 19.0353 9.00162 19.1469L11.0461 21.6269V21.9539H5.24869V21.627L7.2932 19.1469C7.40101 19.0352 7.48104 18.8997 7.52683 18.7514C7.57262 18.603 7.58288 18.446 7.55679 18.293V9.68996Z" fill="#1B1C22"/>
</svg>
