<svg width="116" height="60" viewBox="0 0 116 60" fill="none" xmlns="http://www.w3.org/2000/svg">
<path d="M57.9606 60C89.7897 60 115.592 46.5685 115.592 30C115.592 13.4315 89.7897 0 57.9606 0C26.1314 0 0.328857 13.4315 0.328857 30C0.328857 46.5685 26.1314 60 57.9606 60Z" fill="#8993BE"/>
<path fill-rule="evenodd" clip-rule="evenodd" d="M16.5131 47.7631L22.8291 15.7893H37.4338C43.7495 16.1841 46.9075 19.3417 46.9075 24.8685C46.9075 34.3421 39.4077 39.8685 32.6968 39.4736H25.5923L24.0133 47.7631H16.5131ZM27.1709 33.5529L29.1448 21.7105H34.2762C37.0394 21.7105 39.0128 22.8946 39.0128 25.2629C38.6184 31.9738 35.4604 33.158 31.9079 33.5529H27.1713H27.1709ZM45.4401 39.4736L51.7558 7.50024H59.256L57.677 15.7893H64.7819C71.0979 16.1841 73.4662 19.3417 72.677 23.2895L69.9138 39.4736H62.0192L64.7823 24.8685C65.1767 22.8946 65.1767 21.7105 62.414 21.7105H56.4928L52.9404 39.4736H45.4401V39.4736ZM69.4082 47.7631L75.7238 15.7893H90.3289C96.645 16.1841 99.803 19.3417 99.803 24.8685C99.803 34.3421 92.3028 39.8685 85.5923 39.4736H78.487L76.9079 47.7631H69.4082V47.7631ZM80.0655 33.5529L82.0394 21.7105H87.1713C89.9345 21.7105 91.9079 22.8946 91.9079 25.2629C91.5135 31.9738 88.3555 33.158 84.803 33.5529H80.066H80.0655Z" fill="#232531"/>
</svg>
