<svg width="61" height="60" viewBox="0 0 61 60" fill="none" xmlns="http://www.w3.org/2000/svg">
<path d="M29.9547 0C14.6433 0 15.5993 6.63995 15.5993 6.63995L15.6163 13.5191H30.2277V15.5845H9.8129C9.8129 15.5845 0.0151367 14.4733 0.0151367 29.9224C0.0151367 45.372 8.56686 44.8241 8.56686 44.8241H13.6705V37.6549C13.6705 37.6549 13.3954 29.1031 22.0857 29.1031H36.5776C36.5776 29.1031 44.7196 29.2347 44.7196 21.2342V8.00573C44.7196 8.00573 45.9562 0 29.9547 0ZM21.898 4.62612C22.2432 4.62581 22.5852 4.69359 22.9042 4.82558C23.2233 4.95757 23.5132 5.15117 23.7573 5.39532C24.0015 5.63947 24.1951 5.92937 24.3271 6.24842C24.4591 6.56748 24.5269 6.90943 24.5265 7.25471C24.5269 7.59998 24.4591 7.94194 24.3271 8.26099C24.1951 8.58004 24.0015 8.86994 23.7573 9.11409C23.5132 9.35824 23.2233 9.55185 22.9042 9.68384C22.5852 9.81582 22.2432 9.8836 21.898 9.88329C21.5527 9.8836 21.2107 9.81582 20.8917 9.68384C20.5726 9.55185 20.2827 9.35824 20.0386 9.11409C19.7944 8.86994 19.6008 8.58004 19.4688 8.26099C19.3369 7.94194 19.2691 7.59998 19.2694 7.25471C19.2691 6.90943 19.3369 6.56748 19.4688 6.24842C19.6008 5.92937 19.7944 5.63947 20.0386 5.39532C20.2827 5.15117 20.5726 4.95757 20.8917 4.82558C21.2107 4.69359 21.5527 4.62581 21.898 4.62612V4.62612Z" fill="url(#paint0_linear)"/>
<path d="M30.3895 60.0001C45.7009 60.0001 44.7449 53.3601 44.7449 53.3601L44.7279 46.4812H30.1163V44.4159H50.5311C50.5311 44.4159 60.3288 45.5271 60.3288 30.0774C60.3288 14.6281 51.7771 15.176 51.7771 15.176H46.6735V22.345C46.6735 22.345 46.9486 30.8967 38.2582 30.8967H23.7663C23.7663 30.8967 15.6244 30.7652 15.6244 38.7659V51.9946C15.6244 51.9946 14.388 60.0001 30.3893 60.0001H30.3895ZM38.4462 55.3744C38.1009 55.3748 37.759 55.307 37.4399 55.175C37.1209 55.043 36.831 54.8494 36.5868 54.6052C36.3427 54.3611 36.1491 54.0712 36.0171 53.7521C35.8851 53.4331 35.8173 53.0911 35.8176 52.7459C35.8173 52.4006 35.8851 52.0586 36.017 51.7395C36.149 51.4204 36.3426 51.1305 36.5868 50.8863C36.8309 50.6421 37.1208 50.4485 37.4399 50.3165C37.759 50.1845 38.1009 50.1167 38.4462 50.117C38.7915 50.1167 39.1334 50.1845 39.4525 50.3165C39.7716 50.4485 40.0615 50.6421 40.3056 50.8862C40.5497 51.1304 40.7434 51.4203 40.8753 51.7393C41.0073 52.0584 41.0751 52.4003 41.0748 52.7456C41.0751 53.0909 41.0073 53.4328 40.8753 53.7519C40.7434 54.071 40.5497 54.3609 40.3056 54.605C40.0615 54.8492 39.7716 55.0428 39.4525 55.1748C39.1334 55.3067 38.7915 55.3745 38.4462 55.3742V55.3744Z" fill="url(#paint1_linear)"/>
<defs>
<linearGradient id="paint0_linear" x1="5.81126" y1="5.39666" x2="35.701" y2="34.9881" gradientUnits="userSpaceOnUse">
<stop stop-color="#387EB8"/>
<stop offset="1" stop-color="#366994"/>
</linearGradient>
<linearGradient id="paint1_linear" x1="24.1575" y1="24.3984" x2="56.2556" y2="54.7417" gradientUnits="userSpaceOnUse">
<stop stop-color="#FFE052"/>
<stop offset="1" stop-color="#FFC331"/>
</linearGradient>
</defs>
</svg>
