<svg width="42" height="29" viewBox="0 0 42 29" fill="none" xmlns="http://www.w3.org/2000/svg">
<path d="M40.296 4.5371C39.8282 2.75968 38.425 1.35645 36.6476 0.865323C33.4435 1.67278e-07 20.5806 0 20.5806 0C20.5806 0 7.71774 1.67278e-07 4.49032 0.865323C2.7129 1.33306 1.33306 2.73629 0.841936 4.5371C1.11518e-07 7.76452 0 14.5 0 14.5C0 14.5 -5.57592e-08 21.2355 0.865323 24.4629C1.33306 26.2403 2.73629 27.6435 4.51371 28.1347C7.71774 29 20.5806 29 20.5806 29C20.5806 29 33.4435 29 36.671 28.1347C38.4484 27.6669 39.8282 26.2637 40.3194 24.4629C41.1613 21.2355 41.1613 14.5 41.1613 14.5C41.1613 14.5 41.1613 7.76452 40.296 4.5371Z" fill="#E6E6E6"/>
<path d="M16.371 20.6274V8.37258L27.129 14.5L16.371 20.6274Z" fill="#1B1C22"/>
</svg>
